<svg xmlns="http://www.w3.org/2000/svg" xmlns:xlink="http://www.w3.org/1999/xlink" width="300" zoomAndPan="magnify" viewBox="0 0 224.87999 74.999997" height="100" preserveAspectRatio="xMidYMid meet" version="1.0"><path fill="#000000" d="M 1.460938 14.960938 L 0.839844 15.464844 L 0.765625 33.820312 L 0.695312 52.171875 L 1.429688 52.90625 C 2.035156 53.511719 2.476562 53.667969 4.003906 53.820312 C 9.367188 54.347656 17.839844 56.34375 20.847656 57.789062 C 21.882812 58.289062 23.277344 59.179688 23.945312 59.765625 C 25.554688 61.183594 26.328125 61.183594 28.019531 59.765625 C 31.21875 57.085938 36.046875 55.535156 45.609375 54.121094 C 48.996094 53.621094 49.902344 53.398438 50.351562 52.949219 C 50.90625 52.394531 50.910156 52.300781 50.984375 34.542969 C 51.023438 24.730469 50.992188 16.425781 50.910156 16.097656 C 50.488281 14.378906 49.210938 14.136719 44.386719 14.863281 C 37.292969 15.929688 31.71875 17.382812 28.179688 19.089844 L 25.746094 20.265625 L 24.746094 19.601562 C 22.46875 18.09375 16.800781 16.449219 9.726562 15.238281 C 4.296875 14.308594 2.347656 14.242188 1.460938 14.960938 M 4.921875 34.261719 L 4.921875 49.761719 L 5.515625 49.882812 C 5.84375 49.949219 7.652344 50.261719 9.535156 50.578125 C 16.621094 51.761719 21.210938 53.167969 24.535156 55.171875 L 26.027344 56.070312 L 27.601562 55.050781 C 30.796875 52.988281 35.914062 51.566406 46.230469 49.886719 L 47.089844 49.746094 L 47.089844 18.707031 L 46.230469 18.824219 C 37.820312 19.988281 32.082031 21.421875 29.234375 23.078125 L 28.113281 23.730469 L 28.113281 28.808594 C 28.113281 33.546875 28.078125 33.933594 27.566406 34.582031 C 26.898438 35.429688 25.570312 35.519531 24.652344 34.773438 C 24.039062 34.277344 24.027344 34.191406 23.980469 29.042969 L 23.929688 23.8125 L 22.136719 22.839844 C 19.351562 21.332031 13.800781 19.90625 7.625 19.113281 L 4.921875 18.765625 Z M 130.871094 26.824219 C 129.9375 27.753906 129.898438 28.425781 130.71875 29.375 C 131.976562 30.839844 134.054688 29.996094 134.054688 28.019531 C 134.054688 27.390625 133.859375 26.992188 133.359375 26.597656 C 132.414062 25.855469 131.78125 25.914062 130.871094 26.824219 M 174.355469 26.394531 C 170.492188 27.492188 167.8125 30.71875 167.289062 34.910156 C 166.664062 39.917969 168.84375 44.433594 172.792969 46.308594 C 174.8125 47.265625 178.109375 47.417969 180.148438 46.640625 L 181.570312 46.101562 L 182.566406 47.230469 L 183.5625 48.363281 L 185.097656 48.035156 C 185.636719 47.921875 186.175781 47.804688 186.714844 47.683594 C 186.765625 47.671875 186.15625 46.921875 185.367188 46.015625 L 183.933594 44.367188 L 184.679688 43.351562 C 188.589844 38.023438 186.601562 29.582031 180.808594 26.929688 C 179.066406 26.132812 176.132812 25.890625 174.355469 26.394531 M 206.65625 26.351562 C 204.996094 27.277344 205.089844 29.308594 206.820312 29.96875 C 207.601562 30.265625 208.996094 29.761719 209.25 29.089844 C 209.933594 27.3125 208.207031 25.484375 206.65625 26.351562 M 62.898438 36.726562 L 62.898438 47.136719 L 66.324219 47.136719 L 66.328125 43.378906 L 66.328125 39.625 L 69.160156 39.605469 C 73.171875 39.578125 75.105469 38.671875 76.425781 36.199219 C 77.230469 34.691406 77.226562 31.375 76.417969 29.847656 C 74.921875 27.035156 73.023438 26.316406 67.070312 26.316406 L 62.898438 26.316406 Z M 38.753906 26.96875 C 38.324219 27.152344 37.632812 27.703125 37.222656 28.191406 C 36.8125 28.683594 33.957031 31.765625 30.875 35.042969 L 25.277344 41.003906 L 22.28125 37.714844 C 18.777344 33.867188 18.273438 33.433594 17.308594 33.433594 C 16.285156 33.433594 15.199219 34.59375 15.199219 35.691406 C 15.199219 36.453125 15.78125 37.191406 19.824219 41.585938 C 24.078125 46.203125 24.523438 46.609375 25.34375 46.609375 C 26.167969 46.609375 26.726562 46.082031 33.070312 39.296875 C 41.386719 30.398438 41.816406 29.890625 41.816406 28.984375 C 41.816406 27.417969 40.207031 26.359375 38.753906 26.96875 M 121.402344 30.070312 L 121.402344 32.113281 L 119.03125 32.113281 L 119.03125 35.011719 L 121.402344 35.011719 L 121.402344 39.4375 C 121.402344 43.5 121.453125 43.957031 121.996094 45.035156 C 122.777344 46.585938 123.878906 47.132812 126.214844 47.136719 L 127.992188 47.136719 L 127.992188 44.015625 L 126.792969 44.015625 C 124.890625 44.015625 124.863281 43.953125 124.777344 39.207031 L 124.699219 35.011719 L 127.992188 35.011719 L 127.992188 32.140625 L 126.386719 32.0625 L 124.777344 31.980469 L 124.699219 28.105469 L 123.050781 28.066406 L 121.402344 28.03125 Z M 174.816406 29.484375 C 172.832031 30.078125 171.144531 32.269531 170.664062 34.878906 C 170.34375 36.59375 170.679688 39.246094 171.386719 40.65625 C 172.121094 42.117188 173.617188 43.4375 175.007812 43.847656 C 176.558594 44.308594 177.074219 44.324219 178.410156 43.953125 L 179.414062 43.675781 L 177.914062 41.96875 C 177.089844 41.027344 176.460938 40.230469 176.515625 40.191406 C 176.570312 40.152344 177.105469 39.742188 177.703125 39.28125 L 178.792969 38.441406 L 179.8125 39.65625 C 180.371094 40.328125 181.03125 41.125 181.277344 41.433594 C 181.714844 41.988281 181.730469 41.976562 182.449219 40.414062 C 183.0625 39.078125 183.175781 38.488281 183.171875 36.59375 C 183.167969 33.175781 181.917969 30.828125 179.511719 29.714844 C 178.398438 29.199219 176.136719 29.085938 174.816406 29.484375 M 66.324219 33.035156 L 66.324219 36.59375 L 68.574219 36.59375 C 69.933594 36.59375 71.179688 36.445312 71.730469 36.214844 C 74.15625 35.203125 74.417969 31.058594 72.132812 29.878906 C 71.597656 29.601562 70.578125 29.480469 68.84375 29.480469 L 66.324219 29.480469 Z M 84.914062 31.980469 C 83.953125 32.324219 83 33.195312 82.898438 33.828125 C 82.871094 33.972656 82.78125 33.621094 82.691406 33.046875 L 82.53125 32.003906 L 80.953125 32.03125 L 79.371094 32.058594 L 79.230469 47.136719 L 82.664062 47.136719 L 82.664062 42.367188 C 82.664062 36.054688 83.03125 35.277344 86.21875 34.839844 L 87.410156 34.675781 L 87.410156 33.132812 C 87.410156 31.621094 87.394531 31.585938 86.683594 31.597656 C 86.285156 31.605469 85.488281 31.777344 84.914062 31.980469 M 93.820312 31.863281 C 93.214844 31.980469 92.371094 32.257812 91.949219 32.480469 C 90.941406 33 89.515625 34.632812 89.515625 35.265625 C 89.515625 35.535156 89.445312 35.949219 89.355469 36.175781 C 89.222656 36.527344 89.441406 36.59375 90.738281 36.59375 C 92.171875 36.589844 92.316406 36.535156 92.722656 35.816406 C 93.292969 34.8125 94.867188 34.34375 96.335938 34.742188 C 97.601562 35.082031 97.957031 35.492188 98.136719 36.820312 L 98.277344 37.859375 L 96.203125 38.023438 C 90.792969 38.453125 88.726562 39.792969 88.726562 42.867188 C 88.726562 46.902344 94.175781 48.851562 97.375 45.960938 L 98.355469 45.078125 L 98.253906 46.105469 L 98.15625 47.136719 L 101.675781 47.136719 L 101.589844 41.273438 C 101.511719 35.832031 101.464844 35.332031 100.933594 34.355469 C 100.21875 33.046875 99.027344 32.253906 97.210938 31.875 C 95.652344 31.554688 95.386719 31.550781 93.820312 31.863281 M 109.367188 31.859375 C 107.152344 32.304688 105.53125 33.65625 104.488281 35.933594 C 103.632812 37.800781 103.636719 41.164062 104.492188 43.078125 C 105.917969 46.253906 109.09375 47.859375 112.542969 47.140625 C 114.9375 46.644531 116.929688 44.800781 117.351562 42.691406 L 117.515625 41.863281 L 115.910156 41.863281 C 114.398438 41.863281 114.277344 41.910156 113.902344 42.640625 C 113.296875 43.808594 112.503906 44.238281 110.945312 44.238281 C 109.789062 44.238281 109.417969 44.109375 108.675781 43.457031 C 106.503906 41.550781 106.738281 36.703125 109.070312 35.28125 C 110.800781 34.226562 113.363281 34.929688 113.898438 36.605469 C 114.035156 37.046875 114.304688 37.121094 115.753906 37.121094 C 116.6875 37.121094 117.449219 37.078125 117.449219 37.023438 C 117.449219 36.96875 117.269531 36.40625 117.042969 35.773438 C 116.03125 32.902344 112.683594 31.195312 109.367188 31.859375 M 141.996094 31.867188 C 138.515625 32.5625 136.425781 35.484375 136.425781 39.664062 C 136.425781 42.738281 137.75 45.160156 140.148438 46.476562 C 141.359375 47.140625 141.847656 47.25 143.539062 47.25 C 145.222656 47.25 145.722656 47.136719 146.90625 46.488281 C 148.226562 45.765625 149.863281 43.847656 149.863281 43.027344 C 149.863281 42.847656 149.9375 42.511719 150.023438 42.28125 C 150.160156 41.929688 149.929688 41.863281 148.507812 41.863281 C 146.894531 41.863281 146.816406 41.894531 146.480469 42.660156 C 145.808594 44.175781 143.046875 44.835938 141.53125 43.84375 C 140.054688 42.878906 139.332031 39.140625 140.210938 37.035156 C 141.332031 34.351562 144.828125 33.910156 146.308594 36.261719 C 146.796875 37.042969 146.941406 37.101562 148.335938 37.109375 C 149.160156 37.117188 149.894531 37.023438 149.96875 36.90625 C 150.191406 36.546875 148.925781 34.136719 148.121094 33.378906 C 146.699219 32.046875 144.199219 31.429688 141.996094 31.867188 M 156.980469 31.871094 C 151.535156 32.960938 149.601562 41.390625 153.859375 45.476562 C 157.332031 48.800781 163.671875 47.382812 165.003906 42.984375 C 165.179688 42.414062 165.125 42.390625 163.5 42.390625 C 161.980469 42.390625 161.777344 42.457031 161.46875 43.039062 C 160.703125 44.46875 158.144531 44.886719 156.554688 43.84375 C 155.921875 43.429688 154.890625 41.601562 154.878906 40.875 C 154.875 40.625 156.105469 40.546875 160.179688 40.546875 L 165.484375 40.546875 L 165.351562 38.898438 C 164.964844 34.039062 161.339844 31 156.980469 31.871094 M 212.304688 32.046875 C 212.292969 32.085938 212.277344 32.738281 212.269531 33.496094 L 212.253906 34.882812 L 215.714844 34.882812 C 217.617188 34.882812 219.175781 34.9375 219.175781 35.003906 C 219.175781 35.070312 217.574219 37.230469 215.617188 39.804688 C 212.140625 44.375 212.058594 44.511719 212.058594 45.808594 L 212.058594 47.136719 L 223.652344 47.136719 L 223.652344 43.988281 L 219.96875 43.914062 L 216.28125 43.839844 L 219.835938 39.164062 C 223.171875 34.777344 223.390625 34.417969 223.390625 33.3125 L 223.390625 32.132812 L 217.855469 32.058594 C 214.8125 32.015625 212.3125 32.011719 212.304688 32.046875 M 130.363281 39.625 L 130.363281 47.136719 L 133.789062 47.136719 L 133.789062 32.113281 L 130.363281 32.113281 Z M 189.445312 37.582031 C 189.5625 43.613281 189.734375 44.394531 191.296875 46.003906 C 193.085938 47.855469 196.425781 47.746094 198.402344 45.769531 L 199.410156 44.761719 L 199.410156 47.136719 L 202.570312 47.136719 L 202.570312 32.113281 L 199.144531 32.113281 L 199.144531 36.792969 C 199.144531 40.964844 199.089844 41.5625 198.628906 42.3125 C 197.570312 44.050781 195.363281 44.734375 194.082031 43.722656 C 193.035156 42.898438 192.824219 41.71875 192.824219 36.660156 L 192.820312 32.113281 L 189.339844 32.113281 Z M 205.734375 39.625 L 205.734375 47.136719 L 209.160156 47.136719 L 209.160156 32.113281 L 205.734375 32.113281 Z M 157.089844 34.726562 C 156.515625 34.976562 155.136719 36.476562 155.136719 36.855469 C 155.136719 36.976562 155.0625 37.265625 154.976562 37.496094 C 154.835938 37.863281 155.238281 37.910156 158.382812 37.910156 L 161.949219 37.910156 L 161.707031 37.0625 C 161.320312 35.710938 160.136719 34.707031 158.792969 34.589844 C 158.15625 34.535156 157.390625 34.597656 157.089844 34.726562 M 93.601562 40.738281 C 92.03125 41.121094 91.613281 42.984375 92.875 43.980469 C 94.585938 45.332031 97.746094 43.851562 98.125 41.523438 L 98.28125 40.546875 L 96.207031 40.578125 C 95.0625 40.59375 93.890625 40.664062 93.601562 40.738281 " fill-opacity="1" fill-rule="evenodd"/></svg>